<mxfile host="app.diagrams.net" modified="2022-07-12T02:06:12.641Z" agent="5.0 (Windows NT 10.0; Win64; x64) AppleWebKit/537.36 (KHTML, like Gecko) Chrome/103.0.5060.114 Safari/537.36 Edg/103.0.1264.49" etag="RYNDcnWmSaWnx6uONrf3" version="16.5.6" type="github">
  <diagram id="C5RBs43oDa-KdzZeNtuy" name="Page-1">
    <mxGraphModel dx="1422" dy="786" grid="1" gridSize="10" guides="1" tooltips="1" connect="1" arrows="1" fold="1" page="1" pageScale="1" pageWidth="827" pageHeight="1169" math="0" shadow="0">
      <root>
        <mxCell id="WIyWlLk6GJQsqaUBKTNV-0" />
        <mxCell id="WIyWlLk6GJQsqaUBKTNV-1" parent="WIyWlLk6GJQsqaUBKTNV-0" />
        <mxCell id="O1ZsS-m6Jbnm8LBvg3Du-2" style="edgeStyle=orthogonalEdgeStyle;rounded=0;orthogonalLoop=1;jettySize=auto;html=1;" edge="1" parent="WIyWlLk6GJQsqaUBKTNV-1" source="O1ZsS-m6Jbnm8LBvg3Du-0" target="O1ZsS-m6Jbnm8LBvg3Du-1">
          <mxGeometry relative="1" as="geometry" />
        </mxCell>
        <mxCell id="O1ZsS-m6Jbnm8LBvg3Du-0" value="search.doc.goods" style="ellipse;whiteSpace=wrap;html=1;" vertex="1" parent="WIyWlLk6GJQsqaUBKTNV-1">
          <mxGeometry x="270" y="220" width="200" height="140" as="geometry" />
        </mxCell>
        <mxCell id="O1ZsS-m6Jbnm8LBvg3Du-4" style="edgeStyle=orthogonalEdgeStyle;rounded=0;orthogonalLoop=1;jettySize=auto;html=1;entryX=0;entryY=0.5;entryDx=0;entryDy=0;" edge="1" parent="WIyWlLk6GJQsqaUBKTNV-1" source="O1ZsS-m6Jbnm8LBvg3Du-1" target="O1ZsS-m6Jbnm8LBvg3Du-3">
          <mxGeometry relative="1" as="geometry" />
        </mxCell>
        <mxCell id="O1ZsS-m6Jbnm8LBvg3Du-6" style="edgeStyle=orthogonalEdgeStyle;rounded=0;orthogonalLoop=1;jettySize=auto;html=1;exitX=1;exitY=0.5;exitDx=0;exitDy=0;" edge="1" parent="WIyWlLk6GJQsqaUBKTNV-1" source="O1ZsS-m6Jbnm8LBvg3Du-1" target="O1ZsS-m6Jbnm8LBvg3Du-5">
          <mxGeometry relative="1" as="geometry" />
        </mxCell>
        <mxCell id="O1ZsS-m6Jbnm8LBvg3Du-1" value="com.gzsz.core.ctrl.api.&lt;br&gt;dao.feign.couponSearch&lt;br&gt;.GoodsChsSearchAPi#getGdoosData" style="ellipse;whiteSpace=wrap;html=1;" vertex="1" parent="WIyWlLk6GJQsqaUBKTNV-1">
          <mxGeometry x="570" y="225" width="170" height="130" as="geometry" />
        </mxCell>
        <mxCell id="O1ZsS-m6Jbnm8LBvg3Du-3" value="com.gzsz.core.ctrl.api.couponsearch.&lt;br&gt;service.impl.&lt;br&gt;GoodsDataInfoImpl#getGoodsDataInfo" style="ellipse;whiteSpace=wrap;html=1;" vertex="1" parent="WIyWlLk6GJQsqaUBKTNV-1">
          <mxGeometry x="827" y="140" width="120" height="80" as="geometry" />
        </mxCell>
        <mxCell id="O1ZsS-m6Jbnm8LBvg3Du-5" value="com.gzsz.core.ctrl.api.springfestivalactivity&lt;br&gt;.service.impl.SpringFestivalActivityServiceImpl#getCouponList" style="ellipse;whiteSpace=wrap;html=1;" vertex="1" parent="WIyWlLk6GJQsqaUBKTNV-1">
          <mxGeometry x="827" y="330" width="120" height="80" as="geometry" />
        </mxCell>
        <mxCell id="O1ZsS-m6Jbnm8LBvg3Du-7" value="com.gzsz.core.ctrl.api.&lt;br&gt;commonsearch.service.&lt;br&gt;CommonSearchService#commonSearch" style="ellipse;whiteSpace=wrap;html=1;" vertex="1" parent="WIyWlLk6GJQsqaUBKTNV-1">
          <mxGeometry x="1070" y="20" width="120" height="80" as="geometry" />
        </mxCell>
      </root>
    </mxGraphModel>
  </diagram>
</mxfile>
